<svg width="29" height="29" viewBox="0 0 29 29" fill="none" xmlns="http://www.w3.org/2000/svg">
<path d="M12.0833 22.9583H6.04167C5.40073 22.9583 4.78604 22.7037 4.33283 22.2505C3.87961 21.7973 3.625 21.1826 3.625 20.5416V8.45829M3.625 8.45829C3.625 7.81735 3.87961 7.20266 4.33283 6.74945C4.78604 6.29624 5.40073 6.04163 6.04167 6.04163H22.9583C23.5993 6.04163 24.214 6.29624 24.6672 6.74945C25.1204 7.20266 25.375 7.81735 25.375 8.45829M3.625 8.45829L13.2917 14.9168M25.375 8.45829V13.2916M25.375 8.45829L18.125 13.2916" stroke="white" stroke-width="2.41667" stroke-linecap="round" stroke-linejoin="round"/>
<path d="M16.9165 25.375V20.5417C16.9165 19.9007 17.1711 19.286 17.6243 18.8328C18.0775 18.3796 18.6922 18.125 19.3332 18.125C19.9741 18.125 20.5888 18.3796 21.042 18.8328C21.4952 19.286 21.7498 19.9007 21.7498 20.5417V25.375M16.9165 22.9583H21.7498M25.3748 18.125V25.375" stroke="white" stroke-width="2.41667" stroke-linecap="round" stroke-linejoin="round"/>
</svg>
